<?xml version="1.0" standalone="no"?><!DOCTYPE svg PUBLIC "-//W3C//DTD SVG 1.1//EN" "http://www.w3.org/Graphics/SVG/1.1/DTD/svg11.dtd"><svg t="1512797464788" class="icon" style="" viewBox="0 0 1024 1024" version="1.1" xmlns="http://www.w3.org/2000/svg" p-id="1880" xmlns:xlink="http://www.w3.org/1999/xlink" width="128" height="128"><defs><style type="text/css"></style></defs><path d="M95.904 252.12h50.264c17.622 0 31.904-16.12 31.904-45.85 0-29.747-14.264-44.27-31.904-44.27H95.904C78.281 162 64 176.524 64 206.271c0 29.73 14.264 45.849 31.904 45.849z m229.973 0h593.31C941.75 252.12 960 236 960 206.27c0-29.747-18.269-44.27-40.813-44.27h-593.31c-22.545 0-40.813 14.523-40.813 44.27-0.001 29.731 18.25 45.85 40.813 45.85zM148.143 483.014H95.149c-16.544 0-29.946 17.77-29.946 44.056 0 26.341 13.401 46.781 29.946 46.781h52.994c16.544 0 34.399-20.459 34.399-46.781 0.001-26.27-17.855-44.056-34.399-44.056z m771.044 0h-593.31c-22.545 0-40.813 17.77-40.813 44.056 0 26.341 18.269 46.781 40.813 46.781h593.31c22.563 0 40.813-20.459 40.813-46.781 0-26.27-18.251-44.056-40.813-44.056zM149.13 769.477H98.094c-16.006 0-28.958 17.858-28.958 44.127 0 26.268 12.952 48.396 28.958 48.396h51.035c16.007 0 33.396-22.126 33.396-48.396 0-26.269-17.389-44.127-33.395-44.127z m770.057 0h-593.31c-22.545 0-40.813 17.858-40.813 44.127 0 26.268 18.269 47.139 40.813 47.139h593.31c22.563 0 40.813-20.87 40.813-47.139 0-26.269-18.251-44.127-40.813-44.127z" fill="#bfbfbf" p-id="1881"></path></svg>